<svg width="50" height="53" viewBox="0 0 50 53" fill="none" xmlns="http://www.w3.org/2000/svg">
<g clip-path="url(#clip0_1_32)">
<path d="M25 24.375C27.7614 24.375 30 22.1924 30 19.5C30 16.8076 27.7614 14.625 25 14.625C22.2386 14.625 20 16.8076 20 19.5C20 22.1924 22.2386 24.375 25 24.375Z" stroke="#1E1E1E" stroke-width="4" stroke-linecap="round" stroke-linejoin="round"/>
<path d="M37.3333 24.375C37.1115 24.8651 37.0453 25.4088 37.1433 25.936C37.2414 26.4631 37.4991 26.9495 37.8833 27.3325L37.9833 27.43C38.2933 27.7318 38.5391 28.0903 38.7069 28.4848C38.8746 28.8794 38.961 29.3023 38.961 29.7294C38.961 30.1565 38.8746 30.5794 38.7069 30.9739C38.5391 31.3685 38.2933 31.7269 37.9833 32.0287C37.6738 32.3309 37.3061 32.5706 36.9015 32.7342C36.4968 32.8977 36.063 32.9819 35.625 32.9819C35.1869 32.9819 34.7532 32.8977 34.3485 32.7342C33.9439 32.5706 33.5762 32.3309 33.2667 32.0287L33.1667 31.9312C32.7739 31.5566 32.275 31.3053 31.7343 31.2097C31.1937 31.1142 30.636 31.1787 30.1333 31.395C29.6404 31.601 29.22 31.943 28.9238 32.379C28.6277 32.815 28.4688 33.3258 28.4667 33.8487V34.125C28.4667 34.987 28.1155 35.8136 27.4904 36.4231C26.8652 37.0326 26.0174 37.375 25.1333 37.375C24.2493 37.375 23.4014 37.0326 22.7763 36.4231C22.1512 35.8136 21.8 34.987 21.8 34.125V33.9787C21.7871 33.4409 21.6085 32.9192 21.2875 32.4816C20.9665 32.044 20.5179 31.7107 20 31.525C19.4973 31.3087 18.9397 31.2442 18.399 31.3397C17.8584 31.4353 17.3595 31.6866 16.9667 32.0612L16.8667 32.1588C16.5571 32.4609 16.1895 32.7006 15.7848 32.8642C15.3801 33.0277 14.9464 33.1119 14.5083 33.1119C14.0703 33.1119 13.6365 33.0277 13.2319 32.8642C12.8272 32.7006 12.4596 32.4609 12.15 32.1588C11.8401 31.8569 11.5942 31.4985 11.4265 31.1039C11.2587 30.7094 11.1724 30.2865 11.1724 29.8594C11.1724 29.4323 11.2587 29.0094 11.4265 28.6148C11.5942 28.2203 11.8401 27.8618 12.15 27.56L12.25 27.4625C12.6342 27.0795 12.892 26.5931 12.99 26.066C13.088 25.5388 13.0219 24.9951 12.8 24.505C12.5887 24.0244 12.2379 23.6145 11.7908 23.3257C11.3436 23.037 10.8196 22.8821 10.2833 22.88H10C9.11594 22.88 8.2681 22.5376 7.64297 21.9281C7.01785 21.3186 6.66666 20.492 6.66666 19.63C6.66666 18.768 7.01785 17.9414 7.64297 17.3319C8.2681 16.7224 9.11594 16.38 10 16.38H10.15C10.7017 16.3674 11.2367 16.1933 11.6855 15.8803C12.1343 15.5673 12.4762 15.1299 12.6667 14.625C12.8885 14.1349 12.9547 13.5912 12.8567 13.064C12.7586 12.5369 12.5009 12.0505 12.1167 11.6675L12.0167 11.57C11.7067 11.2682 11.4609 10.9097 11.2931 10.5152C11.1254 10.1206 11.039 9.69773 11.039 9.27062C11.039 8.84352 11.1254 8.42061 11.2931 8.02607C11.4609 7.63153 11.7067 7.27309 12.0167 6.97125C12.3262 6.66908 12.6939 6.42936 13.0985 6.26581C13.5032 6.10225 13.9369 6.01807 14.375 6.01807C14.813 6.01807 15.2468 6.10225 15.6515 6.26581C16.0561 6.42936 16.4238 6.66908 16.7333 6.97125L16.8333 7.06875C17.2261 7.44337 17.725 7.69468 18.2657 7.79026C18.8063 7.88584 19.364 7.82131 19.8667 7.605H20C20.4929 7.39901 20.9134 7.05698 21.2095 6.62101C21.5056 6.18503 21.6645 5.67415 21.6667 5.15125V4.875C21.6667 4.01305 22.0179 3.1864 22.643 2.5769C23.2681 1.96741 24.1159 1.625 25 1.625C25.8841 1.625 26.7319 1.96741 27.357 2.5769C27.9821 3.1864 28.3333 4.01305 28.3333 4.875V5.02125C28.3355 5.54415 28.4944 6.05504 28.7905 6.49101C29.0866 6.92698 29.507 7.26901 30 7.475C30.5027 7.69131 31.0603 7.75584 31.601 7.66026C32.1416 7.56468 32.6405 7.31337 33.0333 6.93875L33.1333 6.84125C33.4429 6.53908 33.8105 6.29936 34.2152 6.13581C34.6199 5.97225 35.0536 5.88807 35.4917 5.88807C35.9297 5.88807 36.3635 5.97225 36.7681 6.13581C37.1728 6.29936 37.5404 6.53908 37.85 6.84125C38.1599 7.14309 38.4058 7.50153 38.5735 7.89607C38.7413 8.29061 38.8276 8.71352 38.8276 9.14062C38.8276 9.56773 38.7413 9.99064 38.5735 10.3852C38.4058 10.7797 38.1599 11.1382 37.85 11.44L37.75 11.5375C37.3658 11.9205 37.108 12.4069 37.01 12.934C36.912 13.4612 36.9781 14.0049 37.2 14.495V14.625C37.4113 15.1056 37.7621 15.5155 38.2092 15.8043C38.6564 16.093 39.1803 16.2479 39.7167 16.25H40C40.884 16.25 41.7319 16.5924 42.357 17.2019C42.9821 17.8114 43.3333 18.638 43.3333 19.5C43.3333 20.362 42.9821 21.1886 42.357 21.7981C41.7319 22.4076 40.884 22.75 40 22.75H39.85C39.3137 22.7521 38.7897 22.907 38.3426 23.1957C37.8954 23.4845 37.5446 23.8944 37.3333 24.375Z" stroke="#1E1E1E" stroke-width="4" stroke-linecap="round" stroke-linejoin="round"/>
</g>
<rect x="2" y="20" width="46" height="27" fill="black"/>
<path d="M0.5 47.5H49.5V49C49.5 50.933 47.933 52.5 46 52.5H4C2.067 52.5 0.5 50.933 0.5 49V47.5Z" stroke="black"/>
<rect x="19.5" y="47.5" width="12" height="2" stroke="black"/>
<path d="M20.0227 33C19.929 32.7131 19.8054 32.456 19.652 32.2287C19.5014 31.9986 19.321 31.8026 19.1108 31.6406C18.9034 31.4787 18.6676 31.3551 18.4034 31.2699C18.1392 31.1847 17.8494 31.142 17.5341 31.142C17.017 31.142 16.5469 31.2756 16.1236 31.5426C15.7003 31.8097 15.3636 32.2031 15.1136 32.723C14.8636 33.2429 14.7386 33.8807 14.7386 34.6364C14.7386 35.392 14.8651 36.0298 15.1179 36.5497C15.3707 37.0696 15.7131 37.4631 16.1449 37.7301C16.5767 37.9972 17.0625 38.1307 17.6023 38.1307C18.1023 38.1307 18.5426 38.0241 18.9233 37.8111C19.3068 37.5952 19.6051 37.2912 19.8182 36.8991C20.0341 36.5043 20.142 36.0398 20.142 35.5057L20.4659 35.5739H17.8409V34.6364H21.1648V35.5739C21.1648 36.2926 21.0114 36.9176 20.7045 37.4489C20.4006 37.9801 19.9801 38.392 19.4432 38.6847C18.9091 38.9744 18.2955 39.1193 17.6023 39.1193C16.8295 39.1193 16.1506 38.9375 15.5653 38.5739C14.983 38.2102 14.5284 37.6932 14.2017 37.0227C13.8778 36.3523 13.7159 35.5568 13.7159 34.6364C13.7159 33.946 13.8082 33.3253 13.9929 32.7741C14.1804 32.2202 14.4446 31.7486 14.7855 31.3594C15.1264 30.9702 15.5298 30.6719 15.9957 30.4645C16.4616 30.2571 16.9744 30.1534 17.5341 30.1534C17.9943 30.1534 18.4233 30.223 18.821 30.3622C19.2216 30.4986 19.5781 30.6932 19.8906 30.946C20.206 31.196 20.4688 31.4957 20.679 31.8452C20.8892 32.1918 21.0341 32.5767 21.1136 33H20.0227ZM22.9748 39V30.2727H28.2418V31.2102H24.0316V34.1591H27.9691V35.0966H24.0316V38.0625H28.31V39H22.9748ZM29.6694 31.2102V30.2727H36.2148V31.2102H33.4705V39H32.4137V31.2102H29.6694Z" fill="white"/>
<defs>
<clipPath id="clip0_1_32">
<rect width="40" height="39" fill="white" transform="translate(5)"/>
</clipPath>
</defs>
</svg>
