<svg width="50" height="53" viewBox="0 0 50 53" fill="none" xmlns="http://www.w3.org/2000/svg">
<rect width="40" height="39" transform="translate(5)" fill="white"/>
<path d="M20.0227 33C19.929 32.7131 19.8054 32.456 19.652 32.2287C19.5014 31.9986 19.321 31.8026 19.1108 31.6406C18.9034 31.4787 18.6676 31.3551 18.4034 31.2699C18.1392 31.1847 17.8494 31.142 17.5341 31.142C17.017 31.142 16.5469 31.2756 16.1236 31.5426C15.7003 31.8097 15.3636 32.2031 15.1136 32.723C14.8636 33.2429 14.7386 33.8807 14.7386 34.6364C14.7386 35.392 14.8651 36.0298 15.1179 36.5497C15.3707 37.0696 15.7131 37.4631 16.1449 37.7301C16.5767 37.9972 17.0625 38.1307 17.6023 38.1307C18.1023 38.1307 18.5426 38.0241 18.9233 37.8111C19.3068 37.5952 19.6051 37.2912 19.8182 36.8991C20.0341 36.5043 20.142 36.0398 20.142 35.5057L20.4659 35.5739H17.8409V34.6364H21.1648V35.5739C21.1648 36.2926 21.0114 36.9176 20.7045 37.4489C20.4006 37.9801 19.9801 38.392 19.4432 38.6847C18.9091 38.9744 18.2955 39.1193 17.6023 39.1193C16.8295 39.1193 16.1506 38.9375 15.5653 38.5739C14.983 38.2102 14.5284 37.6932 14.2017 37.0227C13.8778 36.3523 13.7159 35.5568 13.7159 34.6364C13.7159 33.946 13.8082 33.3253 13.9929 32.7741C14.1804 32.2202 14.4446 31.7486 14.7855 31.3594C15.1264 30.9702 15.5298 30.6719 15.9957 30.4645C16.4616 30.2571 16.9744 30.1534 17.5341 30.1534C17.9943 30.1534 18.4233 30.223 18.821 30.3622C19.2216 30.4986 19.5781 30.6932 19.8906 30.946C20.206 31.196 20.4688 31.4957 20.679 31.8452C20.8892 32.1918 21.0341 32.5767 21.1136 33H20.0227ZM22.9748 39V30.2727H28.2418V31.2102H24.0316V34.1591H27.9691V35.0966H24.0316V38.0625H28.31V39H22.9748ZM29.6694 31.2102V30.2727H36.2148V31.2102H33.4705V39H32.4137V31.2102H29.6694Z" fill="white"/>
</svg>
